<svg xmlns="http://www.w3.org/2000/svg" viewBox="0 0 500 500"><g id="freepik--Floor--inject-31"><path d="M409,242.28c-88.41-51-231.28-51-319.12,0S2.55,376.09,91,427.13s231.28,51.05,319.12,0S497.45,293.33,409,242.28Z" style="fill:#f5f5f5"></path></g><g id="freepik--Shadows--inject-31"><path d="M217.44,439.89c4.51-2.61,11.81-2.61,16.3,0s4.47,6.83-.05,9.44-11.82,2.61-16.31,0S212.92,442.5,217.44,439.89Z" style="fill:#e0e0e0"></path><path d="M239.38,425.11a13.18,13.18,0,0,1,12,0c3.3,1.91,3.28,5,0,6.94a13.24,13.24,0,0,1-12,0C236,430.13,236.06,427,239.38,425.11Z" style="fill:#e0e0e0"></path><path d="M309.88,277.62c5.59-3.24,14.64-3.24,20.2,0s5.53,8.47-.06,11.7-14.65,3.23-20.21,0S304.28,280.85,309.88,277.62Z" style="fill:#e0e0e0"></path><polygon points="66.89 348.43 150.93 397.27 310.63 305.02 226.59 256.19 66.89 348.43" style="fill:#e0e0e0"></polygon><path d="M149.9,413.51c14.74-8.51,38.56-8.51,53.2,0s14.56,22.31-.17,30.82-38.56,8.51-53.2,0S135.16,422,149.9,413.51Z" style="fill:#e0e0e0"></path><path d="M349.51,320c20.82-12,54.46-12,75.14,0s20.57,31.51-.25,43.53-54.45,12-75.14,0S328.69,332,349.51,320Z" style="fill:#e0e0e0"></path><path d="M75.67,280.66c17.63-10.19,46.13-10.19,63.65,0s17.43,26.69-.2,36.87-46.14,10.18-63.66,0S58,290.84,75.67,280.66Z" style="fill:#e0e0e0"></path></g><g id="freepik--Plant--inject-31"><path d="M306.39,259l13.56.39L333.5,259c.58,9.15-1.2,18.48-3.67,23h0a6.2,6.2,0,0,1-2.68,2.72,15.91,15.91,0,0,1-14.44,0A6,6,0,0,1,310,282C307.58,277.4,305.81,268.13,306.39,259Z" style="fill:#fff"></path><path d="M310.39,253.47c-5.31,3.06-5.33,8-.06,11.1s13.86,3.07,19.17,0,5.34-8,.06-11.1S315.7,250.4,310.39,253.47Z" style="fill:#ebebeb"></path><path d="M312.49,254.69c-4.14,2.39-4.16,6.27-.05,8.66a16.5,16.5,0,0,0,15,0c4.14-2.39,4.16-6.27.05-8.66A16.5,16.5,0,0,0,312.49,254.69Z" style="fill:#e0e0e0"></path><g style="opacity:0.15"><path d="M312.49,254.69c-4.14,2.39-4.16,6.27-.05,8.66a16.5,16.5,0,0,0,15,0c4.14-2.39,4.16-6.27.05-8.66A16.5,16.5,0,0,0,312.49,254.69Z"></path></g><path d="M297.66,201.19c30.55,10,30.82,30.43,23.94,45-1.74,3-7,4.53-11.57-13.57l8,1-9.35-4.74-2.42-7.26,7.79.58-9.89-4.16A145.94,145.94,0,0,0,297.66,201.19Z" style="fill:#407BFF"></path><path d="M297.66,201.19c30.55,10,30.82,30.43,23.94,45-1.74,3-7,4.53-11.57-13.57l8,1-9.35-4.74-2.42-7.26,7.79.58-9.89-4.16A145.94,145.94,0,0,0,297.66,201.19Z" style="opacity:0.2"></path><path d="M306.3,206.3c16.11,12.22,17.56,26.23,13,40.87C320.92,234.28,322.66,221.26,306.3,206.3Z" style="fill:#fff"></path><path d="M349.39,221.94c-30.1,4.24-33.75,23.22-29.76,37.92,1.13,3,5.76,5.38,13-10.72l-7.65-.37,9.5-2.86,3.47-6.36-7.36-.75,9.91-2.24A138.2,138.2,0,0,1,349.39,221.94Z" style="fill:#407BFF"></path><path d="M349.39,221.94c-30.1,4.24-33.75,23.22-29.76,37.92,1.13,3,5.76,5.38,13-10.72l-7.65-.37,9.5-2.86,3.47-6.36-7.36-.75,9.91-2.24A138.2,138.2,0,0,1,349.39,221.94Z" style="fill:#fff;opacity:0.2"></path><path d="M340.5,225.27c-17,8.7-20.71,21.51-18.91,35.9C322.23,248.9,322.78,236.48,340.5,225.27Z" style="fill:#fff"></path><path d="M288.85,229.06c27.61.45,33,17.15,31.07,30.84-.68,2.86-4.59,5.49-12.94-8.2l6.85-1.19L305,249l-3.84-5.34,6.55-1.5-9.18-.91A125.12,125.12,0,0,0,288.85,229.06Z" style="fill:#407BFF"></path><path d="M297.24,231.06c16.32,5.94,21.08,17.07,21.06,30.24C316.35,250.31,314.47,239.18,297.24,231.06Z" style="fill:#fff"></path></g><g id="freepik--Windows--inject-31"><polygon points="308.16 39.92 302.91 36.92 302.58 151.87 302.59 151.88 344.98 176.08 345 170.06 345.31 61.13 308.16 39.92" style="fill:#f0f0f0"></polygon><polygon points="307.85 148.85 308.16 39.92 302.91 36.92 302.58 151.87 302.59 151.88 307.87 148.86 307.85 148.85" style="opacity:0.1"></polygon><polygon points="345 170.06 307.87 148.86 302.59 151.88 344.98 176.08 345 170.06" style="opacity:0.2"></polygon><polygon points="366.17 73.04 360.91 70.04 360.58 184.99 360.6 185 402.98 209.2 403 203.18 403.31 94.25 366.17 73.04" style="fill:#f0f0f0"></polygon><polygon points="365.86 181.97 366.17 73.04 360.91 70.04 360.58 184.99 360.6 185 365.88 181.98 365.86 181.97" style="opacity:0.1"></polygon><polygon points="403 203.18 365.88 181.98 360.6 185 402.98 209.2 403 203.18" style="opacity:0.2"></polygon><polygon points="425.5 106.95 420.24 103.95 419.91 218.9 419.93 218.9 462.31 243.11 462.33 237.09 462.64 128.16 425.5 106.95" style="fill:#f0f0f0"></polygon><polygon points="425.19 215.88 425.5 106.95 420.24 103.95 419.91 218.9 419.93 218.9 425.21 215.89 425.19 215.88" style="opacity:0.1"></polygon><polygon points="462.33 237.09 425.21 215.89 419.93 218.9 462.31 243.11 462.33 237.09" style="opacity:0.2"></polygon></g><g id="freepik--Cabinet--inject-31"><polygon points="265.07 106.75 223.39 82.53 170.14 113.28 170.46 226.59 212.14 250.81 265.39 220.07 265.07 106.75" style="fill:#e0e0e0"></polygon><polygon points="265.07 106.75 223.39 82.53 170.14 113.28 170.46 226.59 212.14 250.81 265.39 220.07 265.07 106.75" style="opacity:0.1"></polygon><polygon points="245.85 209.13 245.85 209.13 245.85 209.14 245.85 209.13 245.85 209.13" style="fill:#7e7e7e"></polygon><polygon points="245.85 209.13 245.85 209.13 234.09 215.92 245.85 209.13" style="fill:#c1c1c1"></polygon><polygon points="234.09 137 234.09 137 245.85 130.22 234.09 137" style="fill:#c1c1c1"></polygon><path d="M219.41,171l41.27-23.82-.08-28.08-41.27,23.82Zm26.45-37.76L234.1,140v-3h0l11.75-6.79Z" style="fill:#e0e0e0"></path><polygon points="234.09 137 234.09 137 234.1 140.01 245.86 133.22 245.85 130.22 234.09 137" style="fill:#e0e0e0"></polygon><polygon points="219.41 170.99 219.34 142.91 217.93 142.1 218.01 170.18 219.41 170.99" style="fill:#e6e6e6"></polygon><polygon points="260.6 119.09 259.2 118.28 217.93 142.1 219.34 142.91 260.6 119.09" style="fill:#f0f0f0"></polygon><polygon points="234.09 137 234.09 137 234.1 140.01 245.86 133.22 245.85 130.22 234.09 137" style="opacity:0.1"></polygon><polygon points="234.09 171.37 234.1 174.38 245.86 167.59 245.85 164.58 234.09 171.37" style="fill:#e0e0e0"></polygon><path d="M219.33,177.28l.08,28.08,41.27-23.82-.08-28.08Zm26.53-9.69-11.76,6.79v-3l11.75-6.79Z" style="fill:#e0e0e0"></path><polygon points="217.93 176.47 218.01 204.55 219.41 205.36 219.34 177.28 217.93 176.47" style="fill:#e6e6e6"></polygon><polygon points="260.6 153.46 259.2 152.64 217.93 176.47 219.34 177.28 260.6 153.46" style="fill:#f0f0f0"></polygon><polygon points="234.09 171.37 234.1 174.38 245.86 167.59 245.85 164.58 234.09 171.37" style="opacity:0.1"></polygon><polygon points="234.09 205.3 234.1 208.31 245.86 201.52 245.85 198.52 245.85 198.51 234.09 205.3" style="fill:#e0e0e0"></polygon><polygon points="234.09 205.3 234.1 208.31 245.86 201.52 245.85 198.52 245.85 198.51 234.09 205.3" style="opacity:0.1"></polygon><path d="M219.33,211.21l.08,28.08,41.27-23.82-.08-28.08Zm26.53-9.69-11.76,6.79v-3l11.75-6.79h0Z" style="fill:#e0e0e0"></path><polygon points="217.93 210.4 218.01 238.47 219.41 239.29 219.34 211.21 217.93 210.4" style="fill:#e6e6e6"></polygon><polygon points="260.6 187.39 259.2 186.57 217.93 210.4 219.34 211.21 260.6 187.39" style="fill:#f0f0f0"></polygon><g style="opacity:0.1"><polygon points="212.14 250.81 170.46 226.59 170.14 113.28 211.82 137.5 212.14 250.81"></polygon></g><g style="opacity:0.2"><polygon points="211.82 137.5 170.14 113.28 223.39 82.53 265.07 106.75 211.82 137.5" style="fill:#fff"></polygon></g><polygon points="265.07 106.75 223.39 82.53 170.14 113.28 170.46 226.59 212.14 250.81 265.39 220.07 265.07 106.75" style="fill:#fff;opacity:0.4"></polygon></g><g id="freepik--Pictures--inject-31"><polygon points="98.09 90.14 65.35 109.04 65.42 134.06 98.16 115.16 98.09 90.14" style="fill:none"></polygon><polygon points="98.09 90.14 98.16 115.16 101.19 116.92 101.11 88.39 98.09 90.14" style="fill:#f0f0f0"></polygon><polygon points="65.42 134.06 65.43 137.56 101.19 116.92 98.16 115.16 65.42 134.06" style="fill:#f5f5f5"></polygon><path d="M104.76,82.07,61.68,107l.1,36.94L104.87,119ZM65.43,137.56v-3.5l-.07-25,32.74-18.9,3-1.75.08,28.53Z" style="fill:#e0e0e0"></path><polygon points="104.76 82.07 101.73 80.31 58.65 105.19 61.68 106.95 104.76 82.07" style="fill:#f5f5f5"></polygon><polygon points="58.65 105.19 58.75 142.13 61.78 143.89 61.68 106.95 58.65 105.19" style="fill:#f0f0f0"></polygon><polygon points="153.86 57.94 121.12 76.84 121.19 101.86 153.93 82.96 153.86 57.94" style="fill:none"></polygon><polygon points="153.86 57.94 153.93 82.96 156.96 84.72 156.88 56.2 153.86 57.94" style="fill:#f0f0f0"></polygon><polygon points="121.19 101.86 121.2 105.37 156.96 84.72 153.93 82.96 121.19 101.86" style="fill:#f5f5f5"></polygon><path d="M160.53,49.88,117.44,74.75l.11,36.94,43.09-24.87ZM121.2,105.37v-3.51l-.07-25,32.74-18.9,3-1.74L157,84.72Z" style="fill:#e0e0e0"></path><polygon points="160.53 49.88 157.5 48.11 114.41 72.99 117.44 74.75 160.53 49.88" style="fill:#f5f5f5"></polygon><polygon points="114.41 72.99 114.52 109.93 117.55 111.69 117.44 74.75 114.41 72.99" style="fill:#f0f0f0"></polygon><polygon points="87.69 99.64 96.62 106.66 96.64 113.53 66.94 130.68 66.92 123.81 72.58 112.57 77.66 116.51 75.87 122.1 78.47 117.14 87.69 99.64" style="fill:#e0e0e0"></polygon><path d="M77.93,103.1c1.4-.81,2.54-.16,2.54,1.44A5.52,5.52,0,0,1,78,108.91c-1.4.81-2.53.16-2.54-1.44A5.57,5.57,0,0,1,77.93,103.1Z" style="fill:#e0e0e0"></path><polygon points="143.46 67.44 152.38 74.47 152.4 81.34 122.71 98.48 122.69 91.61 128.35 80.37 133.43 84.32 131.63 89.9 134.24 84.94 143.46 67.44" style="fill:#e0e0e0"></polygon><path d="M133.7,70.9c1.4-.81,2.54-.16,2.54,1.45a5.55,5.55,0,0,1-2.52,4.37c-1.4.8-2.54.16-2.54-1.45A5.54,5.54,0,0,1,133.7,70.9Z" style="fill:#e0e0e0"></path></g><g id="freepik--Chair--inject-31"><path d="M70.6,247.91l19.58,9.91h27.89l32.74-17.38c4.17-2.39,4.57-8.78,2.22-12.35a5.86,5.86,0,0,0-1.95-1.89l-3.85-2h0c0-13.69,2-12.35,5.8-17.72s-2-8.71-6.37-6.33h0s-24.35,7.16-30.79.84c-8-7.86-4.66-27.69-3.7-35.45s0-13.13-2.15-15.4-5.25-5.61-15.34-1.43c0,0-27.17,11.78-40.48,18.35a17.82,17.82,0,0,0-8.38,4.25,5.65,5.65,0,0,0-1.54,2,2.41,2.41,0,0,0,.31,2.42,2.34,2.34,0,0,0,1.59.72l16.79,62A14.85,14.85,0,0,0,70.6,247.91ZM104,168c-.19-1.48-.45-2.95-.76-4.38C103.53,165,103.79,166.46,104,168Zm-1.54-7.5a27.75,27.75,0,0,0-3.23-7.36A27.75,27.75,0,0,1,102.44,160.45Z" style="fill:#37474f"></path><path d="M85.73,283.86,84,281l2.2-1.39h0a2.34,2.34,0,0,1,2.44.21,7.41,7.41,0,0,1,3.37,5.84,2.33,2.33,0,0,1-1,2.2h0l-2.16,1.38-1.79-3.06A8.18,8.18,0,0,1,85.73,283.86Z" style="fill:#37474f"></path><path d="M86.48,281.16c-1.87-1.07-3.39-.21-3.4,1.94a7.45,7.45,0,0,0,3.38,5.84c1.86,1.08,3.39.21,3.39-1.94A7.43,7.43,0,0,0,86.48,281.16Z" style="fill:#455a64"></path><path d="M122.69,283l1.7-2.9-2.2-1.4h0a2.34,2.34,0,0,0-2.44.21,7.45,7.45,0,0,0-3.38,5.84,2.33,2.33,0,0,0,1.06,2.2h0l2.16,1.38,1.79-3.06A8.18,8.18,0,0,0,122.69,283Z" style="fill:#37474f"></path><path d="M121.94,280.34c1.87-1.08,3.39-.22,3.4,1.93a7.45,7.45,0,0,1-3.38,5.84c-1.87,1.08-3.39.22-3.39-1.93A7.4,7.4,0,0,1,121.94,280.34Z" style="fill:#455a64"></path><path d="M110.57,275.84h-6.28v10.82h0a1.56,1.56,0,0,0,.93,1.28,4.87,4.87,0,0,0,4.43,0,1.54,1.54,0,0,0,.92-1.28h0Z" style="fill:#ebebeb"></path><polygon points="87.83 278.87 87.83 281.45 104.29 285.6 104.29 280.13 87.83 278.87" style="fill:#e0e0e0"></polygon><polygon points="87.83 278.87 88.98 278.48 104.29 279.29 104.29 280.13 87.83 278.87" style="fill:#f5f5f5"></polygon><path d="M86.18,302.25l1.7-2.9-2.2-1.4h0a2.36,2.36,0,0,0-2.45.21A7.41,7.41,0,0,0,79.86,304a2.33,2.33,0,0,0,1,2.2h0l2.16,1.38,1.79-3.06A7.94,7.94,0,0,0,86.18,302.25Z" style="fill:#37474f"></path><path d="M85.43,299.56c1.87-1.08,3.39-.22,3.4,1.93a7.42,7.42,0,0,1-3.38,5.84c-1.86,1.08-3.39.22-3.39-1.93A7.4,7.4,0,0,1,85.43,299.56Z" style="fill:#455a64"></path><path d="M108.09,309.62l-1.69-2.9,2.2-1.4h0a2.36,2.36,0,0,1,2.45.2,7.45,7.45,0,0,1,3.37,5.84,2.32,2.32,0,0,1-1,2.2h0L111.21,315l-1.79-3.06A8,8,0,0,1,108.09,309.62Z" style="fill:#37474f"></path><path d="M108.84,306.93c-1.86-1.08-3.39-.22-3.39,1.93a7.41,7.41,0,0,0,3.37,5.84c1.87,1.08,3.39.22,3.4-1.93A7.45,7.45,0,0,0,108.84,306.93Z" style="fill:#455a64"></path><path d="M131.85,298.23l-1.7-2.91,2.2-1.39h0a2.34,2.34,0,0,1,2.44.21,7.41,7.41,0,0,1,3.37,5.84,2.33,2.33,0,0,1-1,2.2h0L135,303.56l-1.79-3.06A8.18,8.18,0,0,1,131.85,298.23Z" style="fill:#37474f"></path><path d="M132.6,295.53c-1.87-1.07-3.39-.21-3.4,1.94a7.45,7.45,0,0,0,3.38,5.84c1.86,1.08,3.39.21,3.39-1.94A7.43,7.43,0,0,0,132.6,295.53Z" style="fill:#455a64"></path><polygon points="83.88 295.96 83.88 300.14 105.91 288.24 105.91 282.48 83.88 295.96" style="fill:#e0e0e0"></polygon><polygon points="82.61 295.25 104.65 282.16 105.91 282.48 83.88 295.96 82.61 295.25" style="fill:#f5f5f5"></polygon><polygon points="82.61 299.43 83.88 300.14 83.88 295.96 82.61 295.25 82.61 299.43" style="fill:#f0f0f0"></polygon><polygon points="107.39 282.48 110.08 303.77 110.08 307.58 107.39 288.47 107.39 282.48" style="fill:#e0e0e0"></polygon><rect x="110.08" y="303.77" width="1.55" height="3.81" style="fill:#f0f0f0"></rect><polygon points="111.63 303.77 109.19 282.48 107.39 282.48 110.08 303.77 111.63 303.77" style="fill:#f5f5f5"></polygon><polygon points="133.47 291.97 133.47 295.96 110.57 286.66 110.57 281.76 133.47 291.97" style="fill:#e0e0e0"></polygon><polygon points="134.36 295.38 133.47 295.96 133.47 291.97 134.36 291.39 134.36 295.38" style="fill:#f0f0f0"></polygon><polygon points="130.75 290.75 133.47 291.97 134.36 291.39 110.57 280.67 110.57 281.76 130.75 290.75" style="fill:#f5f5f5"></polygon><polygon points="122.16 276.69 122.16 279.31 115.48 282.89 110.57 280.67 110.57 279.6 122.16 276.69" style="fill:#e0e0e0"></polygon><polygon points="122.16 276.69 121.63 276.48 110.57 278.87 110.57 279.6 122.16 276.69" style="fill:#f5f5f5"></polygon><path d="M112.56,256.55H102.29v17.7h0a2.58,2.58,0,0,0,1.52,2.1,8,8,0,0,0,7.26,0,2.55,2.55,0,0,0,1.49-2.11h0Z" style="fill:#e0e0e0"></path><path d="M153,228.09a6.77,6.77,0,0,1-2.22,2.1l-41.87,22.23a9.78,9.78,0,0,1-9,.09L70.6,237.66A14.85,14.85,0,0,1,63,228.29L48.82,176l-.71.22a5.79,5.79,0,0,1-1.84.28h-.09l16.79,62a14.85,14.85,0,0,0,7.63,9.37l29.32,14.85a9.78,9.78,0,0,0,9-.09l41.87-22.23C155,238.05,155.38,231.66,153,228.09Z" style="fill:#455a64"></path><path d="M153,228.09a6.77,6.77,0,0,1-2.22,2.1l-41.87,22.23a9.78,9.78,0,0,1-9,.09L70.6,237.66A14.85,14.85,0,0,1,63,228.29L48.82,176l-.71.22a5.79,5.79,0,0,1-1.84.28h-.09l16.79,62a14.85,14.85,0,0,0,7.63,9.37l29.32,14.85a9.78,9.78,0,0,0,9-.09l41.87-22.23C155,238.05,155.38,231.66,153,228.09Z" style="opacity:0.2"></path><path d="M151.08,226.2l-30.34-15.56L80.8,231.19c1.3.32,2.62.58,3.92.84,3.44.69,6.94,1.45,9.92,3.29s5.4,5,5.42,8.48L99,252h0l.93.47a9.78,9.78,0,0,0,9-.09l41.87-22.23a6.77,6.77,0,0,0,2.22-2.1A5.86,5.86,0,0,0,151.08,226.2Z" style="fill:#455a64"></path><path d="M151.08,226.2l-30.34-15.56L80.8,231.19c1.3.32,2.62.58,3.92.84,3.44.69,6.94,1.45,9.92,3.29s5.4,5,5.42,8.48L99,252h0l.93.47a9.78,9.78,0,0,0,9-.09l41.87-22.23a6.77,6.77,0,0,0,2.22-2.1A5.86,5.86,0,0,0,151.08,226.2Z" style="opacity:0.30000000000000004"></path><path d="M146.66,200.18s-24.35,7.16-30.79.84c-8-7.86-4.66-27.69-3.7-35.45s0-13.13-2.15-15.4-5.25-5.61-15.34-1.43C104.89,154,106.2,179,103,189c8,8.23,7.44,21,7.6,26.9,0,0,20.8,5.08,31.66,11Z" style="fill:#455a64"></path><path d="M146.66,200.18s-24.35,7.16-30.79.84c-8-7.86-4.66-27.69-3.7-35.45s0-13.13-2.15-15.4-5.25-5.61-15.34-1.43C104.89,154,106.2,179,103,189c8,8.23,7.44,21,7.6,26.9,0,0,20.8,5.08,31.66,11Z" style="fill:#fff;opacity:0.1"></path><path d="M142.24,226.92l5-2.69c0-13.69,2-12.35,5.8-17.72s-2-8.71-6.37-6.33S140.55,209.75,142.24,226.92Z" style="fill:#455a64"></path><path d="M142.24,226.92l5-2.69c0-13.69,2-12.35,5.8-17.72s-2-8.71-6.37-6.33S140.55,209.75,142.24,226.92Z" style="fill:#fff;opacity:0.2"></path><path d="M94.68,148.74s-27.27,11.82-40.55,18.38l1,4.85,43.5-19.76A11.68,11.68,0,0,0,94.68,148.74Z" style="fill:#455a64"></path><path d="M94.68,148.74s-27.27,11.82-40.55,18.38l1,4.85,43.5-19.76A11.68,11.68,0,0,0,94.68,148.74Z" style="fill:#fff;opacity:0.1"></path><path d="M103,189c2.75-8.55,2.19-28-4.38-36.76L55.1,172,65,221.8l15.76,9.39,29.78-15.32C110.42,210,111,197.2,103,189Z" style="fill:#455a64"></path><path d="M103,189c2.75-8.55,2.19-28-4.38-36.76L55.1,172,65,221.8l15.76,9.39,29.78-15.32C110.42,210,111,197.2,103,189Z" style="opacity:0.1"></path><path d="M76.05,199c.74-.42,1.34-.08,1.34.77a2.9,2.9,0,0,1-1.33,2.3c-.74.43-1.34.09-1.34-.76A2.94,2.94,0,0,1,76.05,199Z" style="fill:#455a64"></path><path d="M82.78,195c.74-.43,1.34-.09,1.35.76a3,3,0,0,1-1.34,2.31c-.73.42-1.34.08-1.34-.77A3,3,0,0,1,82.78,195Z" style="fill:#455a64"></path><path d="M89.52,191.05c.73-.42,1.33-.08,1.34.76a2.94,2.94,0,0,1-1.34,2.31c-.73.43-1.33.09-1.34-.76A3,3,0,0,1,89.52,191.05Z" style="fill:#455a64"></path><path d="M96.25,187.1c.74-.43,1.34-.09,1.34.76a3,3,0,0,1-1.33,2.31c-.74.42-1.34.08-1.34-.77A2.88,2.88,0,0,1,96.25,187.1Z" style="fill:#455a64"></path><g style="opacity:0.2"><path d="M76.05,199c.74-.42,1.34-.08,1.34.77a2.9,2.9,0,0,1-1.33,2.3c-.74.43-1.34.09-1.34-.76A2.94,2.94,0,0,1,76.05,199Z" style="fill:#fff"></path><path d="M82.78,195c.74-.43,1.34-.09,1.35.76a3,3,0,0,1-1.34,2.31c-.73.42-1.34.08-1.34-.77A3,3,0,0,1,82.78,195Z" style="fill:#fff"></path><path d="M89.52,191.05c.73-.42,1.33-.08,1.34.76a2.94,2.94,0,0,1-1.34,2.31c-.73.43-1.33.09-1.34-.76A3,3,0,0,1,89.52,191.05Z" style="fill:#fff"></path><path d="M96.25,187.1c.74-.43,1.34-.09,1.34.76a3,3,0,0,1-1.33,2.31c-.74.42-1.34.08-1.34-.77A2.88,2.88,0,0,1,96.25,187.1Z" style="fill:#fff"></path></g><path d="M94.64,235.32c-3-1.84-6.48-2.6-9.92-3.29-1.3-.26-2.62-.52-3.92-.84A23.94,23.94,0,0,1,74.72,229c-4.82-2.65-8-7.62-9.6-12.9s-1.58-10.87-1.25-16.35,1-11,.84-16.47c-.1-3.19-.58-6.61-2.75-9s-5.83-3.18-9.09-2.74a19,19,0,0,0-3.15.74L48.27,174l.55,2.05L63,228.29A14.85,14.85,0,0,0,69.48,237c.36.23.73.45,1.12.65L99,252l1.07-8.24C100,240.29,97.63,237.15,94.64,235.32Z" style="fill:#455a64"></path><path d="M94.64,235.32c-3-1.84-6.48-2.6-9.92-3.29-1.3-.26-2.62-.52-3.92-.84A23.94,23.94,0,0,1,74.72,229c-4.82-2.65-8-7.62-9.6-12.9s-1.58-10.87-1.25-16.35,1-11,.84-16.47c-.1-3.19-.58-6.61-2.75-9s-5.83-3.18-9.09-2.74a19,19,0,0,0-3.15.74L48.27,174l.55,2.05L63,228.29A14.85,14.85,0,0,0,69.48,237c.36.23.73.45,1.12.65L99,252l1.07-8.24C100,240.29,97.63,237.15,94.64,235.32Z" style="opacity:0.2"></path><path d="M94.68,229.7c-10.38-3-20.59-3.35-24.35-10.81s-4-17.75-2.15-35.65a27.29,27.29,0,0,0-.16-6.93c-1.11-6.7-5.14-9.57-9.77-9.64a18.11,18.11,0,0,0-12.43,4.67,5.65,5.65,0,0,0-1.54,2,2.41,2.41,0,0,0,.31,2.42,2.34,2.34,0,0,0,1.59.72h.09a5.79,5.79,0,0,0,1.84-.28l.71-.22c1.28-.4,2.52-.88,3.82-1.2a8.33,8.33,0,0,1,4.67,0,5,5,0,0,1,3,3.35c4.38,14.3-1.17,29.67,3.76,41.49,4,10.74,18,15.2,27.77,18.38h0a5.87,5.87,0,0,1-2.45-1.78,4.14,4.14,0,0,1,.38-5A5.41,5.41,0,0,1,94.68,229.7Z" style="fill:#455a64"></path><path d="M94.68,229.7c-10.38-3-20.59-3.35-24.35-10.81s-4-17.75-2.15-35.65a27.29,27.29,0,0,0-.16-6.93c-1.11-6.7-5.14-9.57-9.77-9.64a18.11,18.11,0,0,0-12.43,4.67,5.65,5.65,0,0,0-1.54,2,2.41,2.41,0,0,0,.31,2.42,2.34,2.34,0,0,0,1.59.72h.09a5.79,5.79,0,0,0,1.84-.28l.71-.22c1.28-.4,2.52-.88,3.82-1.2a8.33,8.33,0,0,1,4.67,0,5,5,0,0,1,3,3.35c4.38,14.3-1.17,29.67,3.76,41.49,4,10.74,18,15.2,27.77,18.38h0a5.87,5.87,0,0,1-2.45-1.78,4.14,4.14,0,0,1,.38-5A5.41,5.41,0,0,1,94.68,229.7Z" style="fill:#fff;opacity:0.1"></path><path d="M101.89,237.05a15.41,15.41,0,0,0-2.66-4.66,8,8,0,0,0-4.55-2.69,5.41,5.41,0,0,0-4.91,1.59,4.14,4.14,0,0,0-.38,5,5.87,5.87,0,0,0,2.45,1.78,24.17,24.17,0,0,1,2.28,1.13,9.65,9.65,0,0,1,3.93,5.54,28.84,28.84,0,0,1,.91,6.87l0,.45,4.87-2.7A30,30,0,0,0,101.89,237.05Z" style="fill:#455a64"></path><path d="M101.89,237.05a15.41,15.41,0,0,0-2.66-4.66,8,8,0,0,0-4.55-2.69,5.41,5.41,0,0,0-4.91,1.59,4.14,4.14,0,0,0-.38,5,5.87,5.87,0,0,0,2.45,1.78,24.17,24.17,0,0,1,2.28,1.13,9.65,9.65,0,0,1,3.93,5.54,28.84,28.84,0,0,1,.91,6.87l0,.45,4.87-2.7A30,30,0,0,0,101.89,237.05Z" style="fill:#fff;opacity:0.2"></path></g><g id="freepik--Desk--inject-31"><polygon points="76.28 269.42 76.29 349.7 150.82 393.01 150.8 312.73 76.28 269.42" style="fill:#407BFF"></polygon><polygon points="298.92 227.21 150.8 312.73 150.82 393.01 298.94 307.49 298.92 227.21" style="fill:#407BFF"></polygon><polygon points="298.92 227.21 150.8 312.73 76.27 269.42 76.29 349.7 150.82 393.01 298.94 307.49 298.92 227.21" style="fill:#fff;opacity:0.30000000000000004"></polygon><polygon points="150.8 326.03 76.28 282.72 76.29 349.7 150.82 393.01 150.81 326.03 150.8 326.03" style="opacity:0.1"></polygon><polygon points="150.81 326.03 150.8 312.73 76.27 269.42 76.28 282.72 150.8 326.03 150.81 326.03" style="opacity:0.30000000000000004"></polygon><polygon points="298.93 240.51 298.92 227.21 150.8 312.73 150.81 326.03 298.93 240.51" style="opacity:0.2"></polygon><polygon points="310.63 218.51 226.59 169.67 66.89 261.92 66.91 267.55 150.95 316.39 310.65 224.15 310.63 218.51" style="fill:#407BFF"></polygon><polygon points="310.63 218.51 226.59 169.67 66.89 261.92 66.91 267.55 150.95 316.39 310.65 224.15 310.63 218.51" style="fill:#fff;opacity:0.30000000000000004"></polygon><polygon points="150.93 310.76 150.95 316.39 66.91 267.55 66.89 261.92 150.93 310.76" style="opacity:0.2"></polygon><polygon points="310.63 218.51 310.65 224.15 150.95 316.39 150.93 310.76 310.63 218.51" style="opacity:0.1"></polygon><polygon points="219.37 193.12 231.69 220.08 263.88 215.09 251.55 188.13 219.37 193.12" style="fill:#e6e6e6"></polygon><polygon points="207.28 198.34 235.14 221.07 262.3 209.87 234.45 187.15 207.28 198.34" style="fill:#f0f0f0"></polygon><polygon points="201.58 190.75 184.88 207.46 226.56 221.38 243.27 204.67 201.58 190.75" style="fill:#fff"></polygon><path d="M226.4,236.28l-33.74-19.61a7.61,7.61,0,0,0-6.92,0l-55.66,32.14a2.5,2.5,0,0,0-1.43,1.9h0v2.14h0a1.73,1.73,0,0,0,.05.45.06.06,0,0,0,0,0,1.86,1.86,0,0,0,.23.47l0,.05a2.58,2.58,0,0,0,.42.47l0,0a3.91,3.91,0,0,0,.63.45l33.73,19.6a5.29,5.29,0,0,0,1,.43l.37.11a3.89,3.89,0,0,0,.49.12c.2.05.4.08.6.11l.14,0a7.69,7.69,0,0,0,.83,0h.13a7.38,7.38,0,0,0,.82,0l.12,0A6.85,6.85,0,0,0,169,275l.14,0a5.31,5.31,0,0,0,.68-.2l.12,0a6.47,6.47,0,0,0,.75-.36l55.66-32.13a3.91,3.91,0,0,0,.63-.45c.06,0,.1-.11.16-.17a4.2,4.2,0,0,0,.29-.32,2.12,2.12,0,0,0,.11-.21,2.39,2.39,0,0,0,.16-.32c0-.08,0-.15,0-.23a1.67,1.67,0,0,0,.05-.31v-2A2.44,2.44,0,0,0,226.4,236.28Z" style="fill:#455a64"></path><path d="M128.65,250.71a1.57,1.57,0,0,0,.06.61.09.09,0,0,0,0,.05,2,2,0,0,0,.23.47l0,0a2.25,2.25,0,0,0,.42.46l0,0a3.35,3.35,0,0,0,.63.44l33.73,19.61a6.07,6.07,0,0,0,1,.43l.37.11c.16,0,.32.09.49.12s.4.08.6.1l.14,0a7.7,7.7,0,0,0,.83.05h.13a7.37,7.37,0,0,0,.82-.05h.12c.27,0,.53-.08.79-.13l.14,0c.23-.06.46-.13.68-.21l.12,0a6.41,6.41,0,0,0,.75-.35l55.66-32.14a3.35,3.35,0,0,0,.63-.44c.06-.06.1-.12.16-.17a4.28,4.28,0,0,0,.29-.33,1.39,1.39,0,0,0,.11-.21,2.29,2.29,0,0,0,.16-.31c0-.08,0-.16,0-.23a1.77,1.77,0,0,0,.05-.32v2a1.67,1.67,0,0,1-.05.31c0,.08,0,.15,0,.23a2.39,2.39,0,0,1-.16.32,2.12,2.12,0,0,1-.11.21,4.2,4.2,0,0,1-.29.32c-.06.06-.1.12-.16.17a3.91,3.91,0,0,1-.63.45L170.73,274.4a6.47,6.47,0,0,1-.75.36l-.12,0a5.31,5.31,0,0,1-.68.2l-.14,0a6.85,6.85,0,0,1-.79.13l-.12,0a7.38,7.38,0,0,1-.82,0h-.13a7.69,7.69,0,0,1-.83,0l-.14,0c-.2,0-.4-.06-.6-.11a3.89,3.89,0,0,1-.49-.12l-.37-.11a5.29,5.29,0,0,1-1-.43l-33.73-19.6a4.63,4.63,0,0,1-.63-.44l0,0a2.58,2.58,0,0,1-.42-.47l0-.05a1.86,1.86,0,0,1-.23-.47.06.06,0,0,1,0,0,1.73,1.73,0,0,1-.05-.45h0v-2.14Z" style="opacity:0.30000000000000004"></path><path d="M223.1,238.28,169,269.5l-.21.1-.12,0a2.71,2.71,0,0,1-.42.13l-.3.06-.2,0c-.15,0-.31,0-.53,0h-.05a3.84,3.84,0,0,1-.55,0l-.36-.06-.43-.12a2.5,2.5,0,0,1-.38-.15l-17.39-10.12,55.85-32.25Z" style="fill:#455a64"></path><path d="M167.19,269.88h0Z" style="fill:#263238"></path><path d="M171.66,229.69l10.17,6a1,1,0,0,1,0,1.78l-15.21,8.78a1.71,1.71,0,0,1-1.71,0l-10.17-6a1,1,0,0,1,0-1.78L170,229.69A1.69,1.69,0,0,1,171.66,229.69Z" style="fill:#455a64"></path><path d="M223.1,238.28,169,269.5l-.21.1-.12,0a2.71,2.71,0,0,1-.42.13l-.3.06-.2,0c-.15,0-.31,0-.53,0h-.05a3.84,3.84,0,0,1-.55,0l-.36-.06-.43-.12a2.5,2.5,0,0,1-.38-.15l-17.39-10.12,55.85-32.25Z" style="opacity:0.2"></path><path d="M171.66,229.69l10.17,6a1,1,0,0,1,0,1.78l-15.21,8.78a1.71,1.71,0,0,1-1.71,0l-10.17-6a1,1,0,0,1,0-1.78L170,229.69A1.69,1.69,0,0,1,171.66,229.69Z" style="opacity:0.2"></path><path d="M235.49,197h0l-1.33-.66h0a1.64,1.64,0,0,0-1.49.09L176.63,229a6.76,6.76,0,0,0-3.28,4.79l-5.76,36.64a1.67,1.67,0,0,0,.94,1.78h0l1.3.64h0a1.66,1.66,0,0,0,1.45-.12l56-32.58a6.77,6.77,0,0,0,3.28-4.8l5.77-36.64A1.67,1.67,0,0,0,235.49,197Z" style="fill:#455a64"></path><path d="M204.92,230.51a12.36,12.36,0,0,0-5.56,8c-.37,2.86,1.52,3.92,4.24,2.35a12.43,12.43,0,0,0,5.56-8C209.52,230,207.62,229,204.92,230.51Z" style="fill:#fff"></path><path d="M168.72,271l5.76-36.64a6.75,6.75,0,0,1,3.28-4.8L233.81,197a1.65,1.65,0,0,1,1.68,0h0l-1.33-.66h0a1.64,1.64,0,0,0-1.49.09L176.63,229a6.76,6.76,0,0,0-3.28,4.79l-5.76,36.64a1.67,1.67,0,0,0,.94,1.78h0l1.3.64h0A1.68,1.68,0,0,1,168.72,271Z" style="opacity:0.30000000000000004"></path></g><g id="freepik--trash-can--inject-31"><path d="M144.29,369.36v58.85c0,4.38,3.12,8.6,8.79,11.9,6.15,3.57,14.39,5.54,23.22,5.54s17.1-2,23.29-5.54c5.76-3.33,8.93-7.59,8.94-12V369.36Z" style="fill:#455a64"></path><path d="M144.29,369.36v58.85c0,4.38,3.12,8.6,8.79,11.9V414.8a9.57,9.57,0,0,1,11.62-9.35,55,55,0,0,0,11.6,1.2c8.83,0,17.1-2,23.29-5.54,5.76-3.32,8.93-7.59,8.94-12V369.36Z" style="opacity:0.1"></path><path d="M153.08,381.26c6.15,3.57,14.39,5.54,23.22,5.54s17.1-2,23.29-5.55c5.76-3.32,8.93-7.58,8.94-12s-3.11-8.6-8.78-11.89c-6.15-3.58-14.4-5.54-23.22-5.54s-17.11,2-23.3,5.54c-5.76,3.33-8.93,7.59-8.94,12S147.41,378,153.08,381.26Z" style="fill:#37474f"></path><polygon points="151.52 383.4 156.88 385.19 160.55 383.4 161.13 381.91 164.47 380.57 165.46 374.4 164.02 373.03 164.32 370.53 161.13 368.07 160.99 370.01 156.13 367.23 155.04 369.02 151.91 368.87 148.44 373.78 149.88 376.44 148.84 377.95 149.09 379.81 151.52 383.4" style="fill:#fff"></polygon><polygon points="155.74 369.76 158.31 372.14 158.61 374.17 160.25 375.42 159.9 380.78 159.6 375.91 157.57 374.83 157.22 372.34 155.74 369.76" style="fill:#e0e0e0"></polygon><polygon points="161.13 368.07 162.38 371.22 162.38 374.18 161.75 371.12 160.99 370.01 161.13 368.07" style="fill:#e0e0e0"></polygon><polygon points="156.13 367.23 156.53 368.87 157.99 370.43 156.13 369.41 155.04 369.02 156.13 367.23" style="fill:#e0e0e0"></polygon><polygon points="151.91 368.87 151.79 372.02 154.3 375.69 155.04 379.21 153.78 375.86 150.48 373.11 150.05 371.51 151.91 368.87" style="fill:#e0e0e0"></polygon><polygon points="159.59 382.14 157.81 383.18 155.2 382.32 153.34 382.66 151.7 380.78 151.26 378.98 149.29 378.19 150.77 379.38 150.96 381.19 153.08 383.7 155.04 383.25 157.99 384.22 159.59 382.14" style="fill:#e0e0e0"></polygon><polygon points="170.39 362.79 166.3 364.06 165.28 363.23 161.85 365.78 162.71 369.03 161.85 370.3 163.48 373.65 163.09 374.66 168.56 377.34 172.59 377.08 174.04 377.92 178.27 375.45 177.33 372.86 181.2 368.29 178.83 363.76 175.53 364.5 173.82 361.91 170.74 363.98 170.39 362.79" style="fill:#fff"></polygon><polygon points="165.28 363.23 165.28 366.89 168.23 368.55 169.07 370.66 172.63 369.61 173.38 370.3 176.54 367.58 173.49 369.46 172.76 368.55 169.42 370.07 169.04 367.7 165.81 366.5 166.3 364.06 165.28 363.23" style="fill:#e0e0e0"></polygon><polygon points="170.44 366.29 171.53 367.32 172.59 366.81 173.87 367.32 175.75 366.29 175.53 364.5 176.4 366.47 174.11 368.14 172.67 367.49 171.32 368.34 170.44 366.29" style="fill:#e0e0e0"></polygon><polygon points="173.82 361.91 172.47 363.76 172.96 364.5 171.26 366.13 172.08 364.68 171.53 364.2 171.66 363.78 170.74 363.98 173.82 361.91" style="fill:#e0e0e0"></polygon><polygon points="170.39 362.79 168.54 364.33 166.68 363.94 170.39 362.79" style="fill:#e0e0e0"></polygon><polygon points="166.25 370.66 167.84 373.12 169.92 372.21 171.53 373.39 172.88 372.86 173.82 373.39 179.33 368.7 173.93 374.15 173.05 373.5 171.15 374.32 169.74 373.09 167.48 373.97 166.25 370.66" style="fill:#e0e0e0"></polygon><polygon points="161.85 365.78 163.09 367.32 164.44 367.64 164.05 370.3 165.02 370.3 164.84 372.48 164.49 370.98 163.44 371.1 163.44 368.87 162.71 369.03 161.85 365.78" style="fill:#e0e0e0"></polygon><polygon points="178.83 363.76 178.62 367.38 181.2 368.29 178.83 363.76" style="fill:#e0e0e0"></polygon><polygon points="183.72 377.95 187.53 378.26 188.09 379.29 191.78 378.33 192.16 375.35 193.29 374.59 193.07 371.27 193.74 370.57 190.1 366.51 186.68 365.38 185.76 364.21 181.43 364.83 181.34 367.29 176.6 369.78 177.05 374.32 180.03 374.81 180.58 377.53 183.82 376.85 183.72 377.95" style="fill:#f0f0f0"></polygon><polygon points="188.09 379.29 189.31 376.26 187.43 373.9 187.44 371.88 184.14 371.56 183.75 370.74 180.23 371.92 183.38 371.39 183.68 372.39 186.96 372.24 186.48 374.34 188.74 376.41 187.53 378.26 188.09 379.29" style="fill:#e0e0e0"></polygon><polygon points="184.84 375.03 184.29 373.82 183.24 373.89 182.35 373.03 180.45 373.25 180.03 374.81 179.97 372.89 182.43 372.27 183.4 373.29 184.8 373.04 184.84 375.03" style="fill:#e0e0e0"></polygon><polygon points="180.58 377.53 182.31 376.45 182.16 375.67 184.11 374.89 182.95 375.82 183.24 376.4 182.99 376.7 183.82 376.85 180.58 377.53" style="fill:#e0e0e0"></polygon><polygon points="183.72 377.95 185.76 377.29 187.17 378.23 183.72 377.95" style="fill:#e0e0e0"></polygon><polygon points="189.77 372.82 189.29 370.25 187.26 370.31 186.32 368.8 185.03 368.78 184.43 368.03 178.29 370.07 184.58 367.36 185.1 368.19 186.95 368.15 187.7 369.64 189.86 369.66 189.77 372.82" style="fill:#e0e0e0"></polygon><polygon points="191.78 378.33 191.28 376.64 190.27 375.93 191.47 373.86 190.67 373.53 191.55 371.79 191.34 373.14 192.25 373.4 191.5 375.24 192.16 375.35 191.78 378.33" style="fill:#e0e0e0"></polygon><polygon points="177.05 374.32 178.43 371.39 176.6 369.78 177.05 374.32" style="fill:#e0e0e0"></polygon><path d="M197.64,376.05l2.55,5.63-5.85,6.54-1.42-1.52L189.59,388l-4.14-3.5.84-2.38-2.33-.9s.32-3.11.28-3.3,1.16-3.77,1.16-3.77l7.8-1.43,2.54,1.69Z" style="fill:#fff"></path><polygon points="194.34 388.22 194.56 385.07 196.77 381.9 195.58 378.69 193.29 378.01 195 379.17 195.91 381.74 193.64 384.41 192.92 386.7 194.34 388.22" style="fill:#e0e0e0"></polygon><polygon points="189.59 387.95 189.11 385.37 190.71 383.69 191.02 382.06 192.71 381.44 192.31 378.19 191.9 381.17 189.96 382 189.87 383.61 187.93 384.98 189.59 387.95" style="fill:#e0e0e0"></polygon><polygon points="185.45 384.45 187.38 383.21 188.89 380.33 186.77 382.3 186.28 382.07 185.45 384.45" style="fill:#e0e0e0"></polygon><polygon points="197.02 378.42 194.75 376.58 192.66 376.97 191.57 376.4 188.99 377.26 191.83 375.59 192.76 376.12 194.98 375.78 197.02 378.42" style="fill:#e0e0e0"></polygon><polygon points="184.6 380.7 186.55 379.9 186.59 378.01 187.25 377.13 186.31 377.72 186.01 379.35 184.6 380.7" style="fill:#e0e0e0"></polygon><path d="M159.92,384.79l-1.5-6,6.93-5.37,1.13,1.75,3.5-.63,3.44,4.19-1.25,2.19,2.12,1.31s-.87,3-.87,3.19-1.82,3.5-1.82,3.5h-7.93l-2.19-2.12Z" style="fill:#f0f0f0"></path><polygon points="165.35 373.42 164.57 376.48 161.82 379.2 162.42 382.57 164.54 383.65 163.07 382.2 162.63 379.51 165.35 377.29 166.48 375.17 165.35 373.42" style="fill:#e0e0e0"></polygon><polygon points="169.98 374.54 169.98 377.17 168.1 378.53 167.51 380.07 165.73 380.38 165.54 383.65 166.48 380.79 168.54 380.32 168.92 378.76 171.07 377.76 169.98 374.54" style="fill:#e0e0e0"></polygon><polygon points="173.42 378.73 171.29 379.6 169.29 382.17 171.73 380.6 172.17 380.92 173.42 378.73" style="fill:#e0e0e0"></polygon><polygon points="160.95 382.57 162.85 384.79 164.98 384.79 165.95 385.54 168.63 385.17 165.54 386.29 164.72 385.6 162.48 385.54 160.95 382.57" style="fill:#e0e0e0"></polygon><polygon points="173.57 382.57 171.51 383.01 171.13 384.85 170.32 385.6 171.35 385.2 171.95 383.65 173.57 382.57" style="fill:#e0e0e0"></polygon><polygon points="185.15 388.89 179.79 390.68 176.12 388.89 175.54 387.41 172.2 386.07 171.21 379.89 172.64 378.53 172.35 376.02 175.54 373.56 175.67 375.5 180.53 372.72 181.62 374.51 184.75 374.36 188.22 379.27 186.78 381.94 187.82 383.44 187.57 385.3 185.15 388.89" style="fill:#fff"></polygon><polygon points="180.93 375.25 178.35 377.63 178.05 379.66 176.41 380.91 176.76 386.27 177.06 381.4 179.09 380.33 179.44 377.83 180.93 375.25" style="fill:#e0e0e0"></polygon><polygon points="175.54 373.56 174.28 376.71 174.28 379.67 174.91 376.62 175.67 375.5 175.54 373.56" style="fill:#e0e0e0"></polygon><polygon points="180.53 372.72 180.13 374.36 178.67 375.92 180.53 374.9 181.62 374.51 180.53 372.72" style="fill:#e0e0e0"></polygon><polygon points="184.75 374.36 184.87 377.51 182.37 381.18 181.62 384.7 182.89 381.35 186.19 378.6 186.62 377 184.75 374.36" style="fill:#e0e0e0"></polygon><polygon points="177.07 387.63 178.86 388.67 181.46 387.81 183.32 388.15 184.96 386.27 185.41 384.47 187.38 383.69 185.89 384.88 185.7 386.68 183.58 389.19 181.62 388.75 178.67 389.71 177.07 387.63" style="fill:#e0e0e0"></polygon><path d="M211.18,369.31c0,5.15-3.45,10.3-10.26,14.24-13.62,7.86-35.64,7.86-49.17,0-6.77-3.94-10.14-9.09-10.11-14.24h0v8.54c0,5.15,3.34,10.31,10.11,14.24,13.53,7.87,35.55,7.87,49.17,0,6.81-3.93,10.23-9.09,10.26-14.24h0v-8.54Z" style="fill:#455a64"></path><path d="M151.75,383.55c13.53,7.86,35.55,7.86,49.17,0,6.81-3.94,10.23-9.09,10.26-14.24s-3.33-10.31-10.1-14.24c-13.54-7.87-35.55-7.87-49.17,0-6.81,3.94-10.24,9.09-10.27,14.25S145,379.61,151.75,383.55Zm1.48-26.19c6.19-3.57,14.47-5.54,23.3-5.54s17.07,2,23.22,5.54c5.67,3.29,8.79,7.52,8.78,11.89s-3.18,8.68-8.94,12c-6.19,3.58-14.46,5.55-23.29,5.55s-17.07-2-23.22-5.54c-5.67-3.3-8.79-7.52-8.79-11.9S147.47,360.69,153.23,357.36Z" style="fill:#455a64"></path><path d="M211.18,369.31c0,5.15-3.45,10.3-10.26,14.24-13.62,7.86-35.64,7.86-49.17,0-6.77-3.94-10.14-9.09-10.11-14.24h0v8.54c0,5.15,3.34,10.31,10.11,14.24,13.53,7.87,35.55,7.87,49.17,0,6.81-3.93,10.23-9.09,10.26-14.24h0v-8.54Z" style="fill:#fff;opacity:0.2"></path><path d="M151.75,383.55c13.53,7.86,35.55,7.86,49.17,0,6.81-3.94,10.23-9.09,10.26-14.24s-3.33-10.31-10.1-14.24c-13.54-7.87-35.55-7.87-49.17,0-6.81,3.94-10.24,9.09-10.27,14.25S145,379.61,151.75,383.55Zm1.48-26.19c6.19-3.57,14.47-5.54,23.3-5.54s17.07,2,23.22,5.54c5.67,3.29,8.79,7.52,8.78,11.89s-3.18,8.68-8.94,12c-6.19,3.58-14.46,5.55-23.29,5.55s-17.07-2-23.22-5.54c-5.67-3.3-8.79-7.52-8.79-11.9S147.47,360.69,153.23,357.36Z" style="fill:#fff;opacity:0.30000000000000004"></path></g><g id="freepik--Papers--inject-31"><polygon points="219.81 446.2 225.97 448.25 230.19 446.2 230.85 444.49 234.69 442.95 235.83 435.85 234.19 434.28 234.52 431.4 230.85 428.58 230.7 430.8 225.11 427.61 223.86 429.66 220.26 429.49 216.27 435.14 217.92 438.2 216.73 439.93 217.01 442.07 219.81 446.2" style="fill:#fff"></polygon><polygon points="224.65 430.52 227.62 433.25 227.96 435.58 229.84 437.02 229.44 443.19 229.1 437.59 226.76 436.35 226.37 433.48 224.65 430.52" style="fill:#e0e0e0"></polygon><polygon points="230.85 428.58 232.3 432.2 232.3 435.59 231.57 432.08 230.7 430.8 230.85 428.58" style="fill:#e0e0e0"></polygon><polygon points="225.11 427.61 225.57 429.49 227.25 431.29 225.11 430.12 223.86 429.66 225.11 427.61" style="fill:#e0e0e0"></polygon><polygon points="220.26 429.49 220.12 433.11 223 437.33 223.86 441.38 222.4 437.53 218.61 434.37 218.12 432.53 220.26 429.49" style="fill:#e0e0e0"></polygon><polygon points="229.09 444.75 227.04 445.94 224.04 444.96 221.9 445.35 220.02 443.19 219.51 441.11 217.24 440.21 218.95 441.58 219.16 443.66 221.6 446.54 223.86 446.03 227.25 447.14 229.09 444.75" style="fill:#e0e0e0"></polygon><path d="M250.38,420.72l2.31,5.09-5.29,5.92-1.29-1.38-3,1.13-3.74-3.17.76-2.15-2.11-.82s.29-2.81.26-3,1-3.4,1-3.4l7.06-1.3,2.29,1.53Z" style="fill:#fff"></path><polygon points="247.4 431.73 247.59 428.87 249.6 426.01 248.52 423.1 246.45 422.49 248 423.54 248.82 425.86 246.77 428.28 246.11 430.35 247.4 431.73" style="fill:#e0e0e0"></polygon><polygon points="243.1 431.48 242.67 429.14 244.12 427.62 244.4 426.15 245.93 425.59 245.56 422.65 245.19 425.35 243.44 426.1 243.36 427.55 241.6 428.79 243.1 431.48" style="fill:#e0e0e0"></polygon><polygon points="239.36 428.31 241.11 427.19 242.47 424.58 240.56 426.37 240.12 426.16 239.36 428.31" style="fill:#e0e0e0"></polygon><polygon points="249.83 422.86 247.77 421.2 245.88 421.55 244.89 421.04 242.56 421.81 245.13 420.3 245.97 420.78 247.98 420.47 249.83 422.86" style="fill:#e0e0e0"></polygon><polygon points="238.59 424.92 240.36 424.19 240.39 422.49 240.99 421.69 240.14 422.22 239.86 423.7 238.59 424.92" style="fill:#e0e0e0"></polygon></g><g id="freepik--Character--inject-31"><path d="M370.27,322.85a54.52,54.52,0,0,1-1.47,8.58c2.17,6.1,9.31,2.92,9.31,2.92l.17-1,.13-.74c.38-2.17,1.82-6.57,1.82-6.57Z" style="fill:#ffa8a7"></path><path d="M377.16,342.46c-.92.67-1.94,1.21-2.86,1.88-2.56,1.84-4.24,4.22-6.8,6.05a12.86,12.86,0,0,1-8.81,2.33,16,16,0,0,1-8.51-3.65,17,17,0,0,0,.15,1.91,12.79,12.79,0,0,0,16.95,1.81c2.55-1.84,4.23-4.22,6.79-6.06.93-.66,1.94-1.2,2.87-1.87a6.35,6.35,0,0,0,2.14-2.62s-.05-.69-.1-1.76A6.37,6.37,0,0,1,377.16,342.46Z" style="fill:#f0f0f0"></path><path d="M379.05,333.59a1,1,0,0,0-.64-.93l-.13.74a9.45,9.45,0,0,1-3,0,2,2,0,0,0-1.73.5l-.27.26c-.15.14-.35.29-.53.21a.34.34,0,0,1-.18-.31,1.18,1.18,0,0,1,.09-.37c.09-.24.18-.55.26-.85a1.4,1.4,0,0,0-.4-1.41,6.32,6.32,0,0,0-3.69-1.56.85.85,0,0,0-.88.68c-.89,4.33-9,11.2-11.56,11.57l-.59.1c4,.55,9.05,2.77,9.35,9.48a12.84,12.84,0,0,0,2.31-1.31c2.56-1.83,4.24-4.21,6.8-6.05.92-.67,1.94-1.21,2.86-1.88a6.37,6.37,0,0,0,1.82-2A57.62,57.62,0,0,1,379.05,333.59Z" style="fill:#37474f"></path><path d="M355.84,342.22c-3.46.63-5.77,2.28-5.66,6.85a16,16,0,0,0,8.51,3.65,13,13,0,0,0,6.5-1C364.89,345,359.85,342.77,355.84,342.22Z" style="fill:#fff"></path><path d="M417.18,309.17a18.32,18.32,0,0,1,4.64,5.52c4,2.53,8.45-4.59,8.45-4.59l-.32-.68c-1.12-2-3.75-6.94-3.75-6.94Z" style="fill:#ffa8a7"></path><path d="M434.6,318.13c-.37,1.09-.88,2.11-1.25,3.19-1,3-1,5.89-2.05,8.87a12.9,12.9,0,0,1-5.85,7,16.07,16.07,0,0,1-9.05,1.94,16.52,16.52,0,0,0,1.23,1.47,12.8,12.8,0,0,0,14.87-8.33c1-3,1-5.89,2-8.86.38-1.08.89-2.11,1.26-3.19a6.28,6.28,0,0,0,.24-3.38s-.45-.53-1.1-1.38A6.54,6.54,0,0,1,434.6,318.13Z" style="fill:#f0f0f0"></path><path d="M431,309.8a1,1,0,0,0-1.06-.38l.32.68a9.54,9.54,0,0,1-2.41,1.7,2,2,0,0,0-1.12,1.41l-.08.38c0,.19-.11.43-.31.47a.33.33,0,0,1-.32-.16.85.85,0,0,1-.14-.34c-.07-.26-.18-.55-.28-.85a1.39,1.39,0,0,0-1.15-.92,6.33,6.33,0,0,0-3.9.86.84.84,0,0,0-.33,1.07c1.77,4-.9,14.36-2.74,16.12l-.43.42c3.59-1.87,9-3,13.11,2.33a13.15,13.15,0,0,0,1.13-2.4c1-3,1-5.89,2.05-8.87.37-1.08.88-2.1,1.25-3.19a6.54,6.54,0,0,0,.34-2.67A56.1,56.1,0,0,1,431,309.8Z" style="fill:#37474f"></path><path d="M417.06,330.26c-2.46,2.52-3.39,5.2-.66,8.87a16.07,16.07,0,0,0,9.05-1.94,13,13,0,0,0,4.72-4.6C426.05,327.29,420.65,328.39,417.06,330.26Z" style="fill:#fff"></path><path d="M407.39,199.39c5.39,19.24.13,36.64-8.58,62.14,6.91,5.11,16.72,20.64,28.21,41.31,0,0-6.4,8.87-13.57,9.09-1.41-1.85-20.64-26.66-20.64-26.66l-11.64,42.21s-9.23,1.47-14.57-3.76c0,0,7.14-48.26,9.28-60-5.51-10.88-13.55-30-6.55-64.3Z" style="fill:#455a64"></path><path d="M376.51,260.61c2.46-18.7,5.28-31.36,5.28-31.36-7.09-3.76-9.36-7.7-9.36-7.7,1.14,6.32,6.63,9.84,6.63,9.84C376.84,242.12,376.51,260.61,376.51,260.61Z" style="opacity:0.2"></path><path d="M392.81,285.27a38.86,38.86,0,0,0,1-9.49l5-14.25-3.66,14.41c.32,3.42.42,9.73-.32,11.94Z" style="opacity:0.2"></path><path d="M374.83,150.35c-4.45-2.39-7.1-1.8-9.43-3.42S351.79,135,351.79,135l-8.09-31.23c-2.14-6.3-10-8.06-14.55-6.79s-12.54,5.86-11.14,8.25a9.39,9.39,0,0,0,7.48,4.12c2.47-.14,9-3.69,9-3.69l4.93,31.22a16.94,16.94,0,0,0,5.9,10.38l17.24,14.32,10.15,17.6Z" style="fill:#ffa8a7"></path><path d="M338.61,106.09a5.08,5.08,0,0,0,3.8-1.39,6.81,6.81,0,0,1-3.52,3.71,9.75,9.75,0,0,1-3.26,4.39l-.88-5.58Z" style="opacity:0.2"></path><path d="M338.61,106.09a14.5,14.5,0,0,1-1.7,2.5,20.18,20.18,0,0,1-1.74,2c-.3.3-.62.62-.94.89a3,3,0,0,1-.46.3,1.51,1.51,0,0,1-1.76-.21l-.06-.06a1.49,1.49,0,0,1-.08-2.14,23.31,23.31,0,0,0,2.54-3.46,6.79,6.79,0,0,0,.95-1.88c.66.49,1.68.6,2.38,1.08A7.89,7.89,0,0,1,338.61,106.09Z" style="fill:#ffa8a7"></path><path d="M342.1,120.39a9.94,9.94,0,0,0,5.22-3.28l-1.7-5.91s-4.85,4.13-9.91,2.06l.76,6.84A9.91,9.91,0,0,0,342.1,120.39Z" style="fill:#407BFF"></path><path d="M374.83,150.35c-2.48-2.26-6.08-2.62-8.06-3.42s-14.43-12.41-14.43-12.41l-5-17.41a9.79,9.79,0,0,1-10.85,3l1.93,17.13a16.88,16.88,0,0,0,6.14,11.24l17.39,14.13,10.8,16.59S377.3,152.62,374.83,150.35Z" style="fill:#407BFF"></path><g style="opacity:0.4"><path d="M342.1,120.39a9.94,9.94,0,0,0,5.22-3.28l-1.7-5.91s-4.85,4.13-9.91,2.06l.76,6.84A9.91,9.91,0,0,0,342.1,120.39Z" style="fill:#fff;opacity:0.5"></path><path d="M374.83,150.35c-2.48-2.26-6.08-2.62-8.06-3.42s-14.43-12.41-14.43-12.41l-5-17.41a9.79,9.79,0,0,1-10.85,3l1.93,17.13a16.88,16.88,0,0,0,6.14,11.24l17.39,14.13,10.8,16.59S377.3,152.62,374.83,150.35Z" style="fill:#fff"></path></g><path d="M382.73,149.52l-7.9.83c-6.48,5.71-9.82,17.68-8.43,30.91a233.23,233.23,0,0,1,1,27.28c17.54,12.8,39.67,3.48,42.45.69L408.53,193a11.35,11.35,0,0,1,.89-5.34c1.65-3.85,4.61-11.42,5-17.28a30.77,30.77,0,0,0-3.2-15.1l-11.49-5Z" style="fill:#407BFF"></path><g style="opacity:0.5"><path d="M382.73,149.52l-7.9.83c-6.48,5.71-9.82,17.68-8.43,30.91a233.23,233.23,0,0,1,1,27.28c17.54,12.8,39.67,3.48,42.45.69L408.53,193a11.35,11.35,0,0,1,.89-5.34c1.65-3.85,4.61-11.42,5-17.28a30.77,30.77,0,0,0-3.2-15.1l-11.49-5Z" style="fill:#fff"></path></g><path d="M380.53,161A85.42,85.42,0,0,0,374,191.9l3.25,7,5.1-6.68a264.27,264.27,0,0,1,.61-30.73Z" style="fill:#407BFF"></path><path d="M380.25,155.3a23.94,23.94,0,0,0,.28,5.74,4.6,4.6,0,0,0,2.46.45,20.28,20.28,0,0,0,3.95-4.77L383,155.3Z" style="fill:#407BFF"></path><path d="M383,155.3c3.4,1.25,6.43,7.3,6.43,7.3,8.93-7.58,10.32-12.32,10.32-12.32a17.71,17.71,0,0,0-4.33-4.57Z" style="fill:#407BFF"></path><path d="M383,155.3c-2.6.06-4.89,3.68-4.89,3.68-.42-6.33,4.89-11.2,4.89-11.2Z" style="fill:#407BFF"></path><g style="opacity:0.35000000000000003"><path d="M383,155.3c3.4,1.25,6.43,7.3,6.43,7.3,8.93-7.58,10.32-12.32,10.32-12.32a17.71,17.71,0,0,0-4.33-4.57Z" style="fill:#fff"></path><path d="M383,155.3c-2.6.06-4.89,3.68-4.89,3.68-.42-6.33,4.89-11.2,4.89-11.2Z" style="fill:#fff"></path></g><path d="M399.75,120.17a7.08,7.08,0,0,0-4.51-2.42L371.73,120c-2.71,5.84-.54,9.69-.54,9.69-.37,8.89-.67,14.55,3.18,16.42a17.74,17.74,0,0,0,8.59,1.21,20.3,20.3,0,0,0,7.87-2.12l.13-.07a6.74,6.74,0,0,0,3.37-4.49,39,39,0,0,0,.81-5.27,21.66,21.66,0,0,1,.32-3,5.45,5.45,0,0,1,1.32-2.66,3,3,0,0,1,2.71-.92,2.26,2.26,0,0,1,.49.19C400.65,125,400.84,121.56,399.75,120.17Z" style="fill:#37474f"></path><path d="M391.14,120.85a8.25,8.25,0,0,0,.31,5,36.31,36.31,0,0,1,1.49,4.86,8,8,0,0,1-.65,4.9,5.65,5.65,0,0,1-3.75,3c-2.52.55-5-.95-7.52-1.45a10.44,10.44,0,0,0-7.08,1.27,1.22,1.22,0,0,1-1.85-1c-.3-5.12-.29-13.14.45-16.91Z" style="fill:#ffa8a7"></path><polygon points="393.53 143.72 393.53 143.72 393.52 143.72 393.53 143.72" style="fill:#ffa8a7"></polygon><path d="M395.58,137.89s0,2.08-.1,4.56a7.19,7.19,0,0,0,2.2-3.45A3.15,3.15,0,0,1,395.58,137.89Z" style="fill:#37474f"></path><path d="M372.94,116.22,370,114.16a6.33,6.33,0,0,0,1.12,5.84,9.25,9.25,0,0,0,5.15,3.08,19.53,19.53,0,0,0,6.06.28,45,45,0,0,0,8.75-1.62,7,7,0,0,0,3.43-1.84,4.65,4.65,0,0,0,.18-5.43,6.79,6.79,0,0,0-4.83-2.84,18.16,18.16,0,0,0-5.82.46,17.59,17.59,0,0,1-5.82.43,6.08,6.08,0,0,1-4.69-3.16C371.9,112.07,372.94,116.22,372.94,116.22Z" style="fill:#37474f"></path><polygon points="380.32 129.93 376.03 135.2 379.96 136.61 380.32 129.93" style="fill:#f28f8f"></polygon><path d="M383.56,139.23l-3.31,1a2,2,0,0,0,2.23,1.05A1.88,1.88,0,0,0,383.56,139.23Z" style="fill:#f28f8f"></path><path d="M383.56,139.23l-3.31,1a2,2,0,0,0,2.23,1.05A1.88,1.88,0,0,0,383.56,139.23Z" style="opacity:0.30000000000000004"></path><path d="M381.4,141.24a1.91,1.91,0,0,0,1.08.07,1.69,1.69,0,0,0,1.08-1.52,2,2,0,0,0-1.28.23A2,2,0,0,0,381.4,141.24Z" style="fill:#f28f8f"></path><path d="M386.15,131.09a1.18,1.18,0,1,1-2.35-.13,1.18,1.18,0,1,1,2.35.13Z" style="fill:#263238"></path><path d="M376.3,130.16a1.18,1.18,0,1,1-1.12-1.26A1.2,1.2,0,0,1,376.3,130.16Z" style="fill:#263238"></path><path d="M375.4,125.35,372.7,127a1.72,1.72,0,0,1,.61-1.85A2,2,0,0,1,375.4,125.35Z" style="fill:#263238"></path><path d="M385.48,125.75l2.51,2a1.71,1.71,0,0,0-.41-1.9A2,2,0,0,0,385.48,125.75Z" style="fill:#263238"></path><path d="M401.6,130.66a3.32,3.32,0,0,0-1.62-1.72,2.26,2.26,0,0,0-.49-.19,3,3,0,0,0-2.71.92,5.45,5.45,0,0,0-1.32,2.66,21.66,21.66,0,0,0-.32,3,37.54,37.54,0,0,1-.84,5.39,6.64,6.64,0,0,1-3.35,4.37l-.12.07a20.3,20.3,0,0,1-7.87,2.12v8l11.11-6.58a2.69,2.69,0,0,0,1.32-2.27c0-1.28.06-2.69.08-4,.06-2.48.1-4.56.1-4.56a3.15,3.15,0,0,0,2.1,1.11,2.83,2.83,0,0,0,1.09-.05,4.17,4.17,0,0,0,2.45-2.12,7.83,7.83,0,0,0,.78-3.23A6.65,6.65,0,0,0,401.6,130.66Z" style="fill:#ffa8a7"></path><path d="M392.42,145a7.64,7.64,0,0,0,1.37-2.89,6.63,6.63,0,0,1-2.84,3l-.12.07a20.3,20.3,0,0,1-7.87,2.12v2a19.47,19.47,0,0,0,4.65-1A10.45,10.45,0,0,0,392.42,145Z" style="opacity:0.2"></path><path d="M407.46,153.67c7.58,1.83,9.8,5.28,20.41,12.49a76.21,76.21,0,0,1,14.23,12.27,6.29,6.29,0,0,1,1.57,3.52c1.69,16.38-2.06,32.36-2.06,32.36-.69,5.35-2.38,11.13-4.1,14a9.5,9.5,0,0,1-6.14,4.47c-1,.21-1.83.36-2.6.46a2.68,2.68,0,0,1-2.62-4,50.22,50.22,0,0,0,4.12-9.45l-3.09,3.39a1.44,1.44,0,0,1-2,.13h0a1.45,1.45,0,0,1-.21-2c2.47-3.3,5.09-7,6.91-8.15.93-9.76.6-21,1.2-25.73-13.91-9.09-20.91-10.29-25.52-16.2S407.46,153.67,407.46,153.67Z" style="fill:#ffa8a7"></path><path d="M443.73,203.45c1.33-8.53,1.85-19.72.38-23-1.85-4.12-9.47-10.77-16.44-15.52s-9.93-10.3-20.21-11.28c-1,1-3.43,7.87-2.16,14s5.42,7.52,27.36,20.08c-.57,2.21-.8,7.9-.75,13.25A15,15,0,0,0,443.73,203.45Z" style="fill:#407BFF"></path><path d="M431.91,201c0,2.78.14,5.48.31,7.54,0,0,6.85,3.87,10.32.91.44-1.68.84-3.73,1.19-6A15,15,0,0,1,431.91,201Z" style="fill:#407BFF"></path><path d="M443.73,203.45c1.33-8.53,1.85-19.72.38-23-1.85-4.12-9.47-10.77-16.44-15.52s-9.93-10.3-20.21-11.28c-1,1-3.43,7.87-2.16,14s5.42,7.52,27.36,20.08c-.57,2.21-.8,7.9-.75,13.25A15,15,0,0,0,443.73,203.45Z" style="fill:#fff;opacity:0.4"></path><path d="M431.91,201c0,2.78.14,5.48.31,7.54,0,0,6.85,3.87,10.32.91.44-1.68.84-3.73,1.19-6A15,15,0,0,1,431.91,201Z" style="fill:#fff;opacity:0.30000000000000004"></path><polygon points="183.05 340.23 175.14 342.86 169.72 340.23 168.86 338.03 163.93 336.05 162.46 326.93 164.58 324.92 164.15 321.21 168.86 317.59 169.06 320.45 176.24 316.34 177.85 318.98 182.46 318.76 187.59 326.01 185.47 329.95 187.01 332.17 186.64 334.92 183.05 340.23" style="fill:#fff"></polygon><polygon points="176.82 320.08 173.01 323.6 172.57 326.58 170.16 328.43 170.67 336.35 171.11 329.16 174.11 327.57 174.63 323.89 176.82 320.08" style="fill:#e0e0e0"></polygon><polygon points="168.86 317.59 167 322.24 167 326.6 167.93 322.09 169.06 320.45 168.86 317.59" style="fill:#e0e0e0"></polygon><polygon points="176.24 316.34 175.65 318.76 173.49 321.07 176.24 319.57 177.85 318.98 176.24 316.34" style="fill:#e0e0e0"></polygon><polygon points="182.46 318.76 182.65 323.41 178.95 328.83 177.85 334.04 179.72 329.09 184.59 325.02 185.22 322.66 182.46 318.76" style="fill:#e0e0e0"></polygon><polygon points="171.13 338.36 173.76 339.9 177.61 338.63 180.36 339.13 182.78 336.35 183.44 333.69 186.35 332.53 184.15 334.29 183.87 336.96 180.74 340.67 177.85 340.01 173.49 341.44 171.13 338.36" style="fill:#e0e0e0"></polygon><path d="M320.49,108h0c-9.19-2.81-19.92-3.07-30.63-.65a75.72,75.72,0,0,0-15.92,5.5,89.12,89.12,0,0,0-15,9.1,117.06,117.06,0,0,0-13.58,12,160.45,160.45,0,0,0-12,14.09c-3.75,5-7.38,10.09-10.73,15.41-1.7,2.65-3.43,5.28-5,8s-3.28,5.4-4.76,8.19a300.1,300.1,0,0,0-16.31,34,302.48,302.48,0,0,0-18.53,68.18c-1.55,10.82-2.42,21.14-2.84,30.73h0c.81-9.56,2-19.83,3.85-30.56a326.94,326.94,0,0,1,7.66-33.23,321.65,321.65,0,0,1,11.89-34.29,317.55,317.55,0,0,1,16.33-33.64c1.46-2.77,3.13-5.42,4.71-8.12s3.27-5.34,4.95-8c3.3-5.29,6.87-10.39,10.54-15.34a166.6,166.6,0,0,1,11.75-14,120,120,0,0,1,13.19-12,90.2,90.2,0,0,1,14.6-9.21,77.16,77.16,0,0,1,15.54-5.78A61.44,61.44,0,0,1,320.49,108Z" style="fill:#e0e0e0"></path><path d="M246,124.06h0a85.41,85.41,0,0,0-17.62,14.56,119.8,119.8,0,0,0-15.46,21c-9,15.34-15.16,32-19.88,44.68h0c5.23-12.44,11.64-29,20.59-44.26a128.29,128.29,0,0,1,15.21-21A92.92,92.92,0,0,1,246,124.06Z" style="fill:#e0e0e0"></path><path d="M224.79,187.83h0a141.79,141.79,0,0,0-9.29,12.78,146.91,146.91,0,0,0-8.83,15.67,149.38,149.38,0,0,0-6.85,16.63,142.42,142.42,0,0,0-4.29,15.21h0a171.16,171.16,0,0,1,29.26-60.29Z" style="fill:#e0e0e0"></path><path d="M168.87,290.18a108.78,108.78,0,0,0-.58,40.27h0c.05-5.59,0-12.86.08-20.13S168.76,295.78,168.87,290.18Z" style="fill:#e0e0e0"></path><path d="M182.73,293.91a199.5,199.5,0,0,0-2.07,32.76h0A197.19,197.19,0,0,0,182.73,293.91Z" style="fill:#e0e0e0"></path><path d="M173.28,259.91a98.29,98.29,0,0,0-3.3,15.74h0A95.93,95.93,0,0,0,173.28,259.91Z" style="fill:#e0e0e0"></path><path d="M315.5,108.71h0a79.47,79.47,0,0,0-21.58,2.93,79.7,79.7,0,0,0-41,26.9,79.68,79.68,0,0,0-11.26,18.63h0a86.72,86.72,0,0,1,11.72-18.26,83.19,83.19,0,0,1,40.67-26.7A87,87,0,0,1,315.5,108.71Z" style="fill:#e0e0e0"></path><path d="M301.68,101.4a67.49,67.49,0,0,0-36,5.53h0A78.08,78.08,0,0,1,283.34,102,79,79,0,0,1,301.68,101.4Z" style="fill:#e0e0e0"></path></g></svg>