<svg width="712" height="544" viewBox="0 0 712 544" fill="none" xmlns="http://www.w3.org/2000/svg">
<mask id="mask0_1_1624" style="mask-type:luminance" maskUnits="userSpaceOnUse" x="0" y="0" width="349" height="394">
<path d="M0.00012207 0H348.223V393.644H0.00012207V0Z" fill="white"/>
</mask>
<g mask="url(#mask0_1_1624)">
<mask id="mask1_1_1624" style="mask-type:luminance" maskUnits="userSpaceOnUse" x="3" y="-73" width="714" height="704">
<path d="M716.836 366.764L253.11 630.918L3.00208 191.884L466.698 -72.3001L716.836 366.764Z" fill="white"/>
</mask>
<g mask="url(#mask1_1_1624)">
<mask id="mask2_1_1624" style="mask-type:luminance" maskUnits="userSpaceOnUse" x="3" y="-73" width="714" height="704">
<path d="M716.836 366.764L253.11 630.918L3.00208 191.884L466.698 -72.3001L716.836 366.764Z" fill="white"/>
</mask>
<g mask="url(#mask2_1_1624)">
<mask id="mask3_1_1624" style="mask-type:luminance" maskUnits="userSpaceOnUse" x="1" y="-1" width="510" height="492">
<path d="M510.7 297.125L171.703 490.251L1.87903 192.15L340.876 -0.975868L510.7 297.125Z" fill="white"/>
</mask>
<g mask="url(#mask3_1_1624)">
<mask id="mask4_1_1624" style="mask-type:luminance" maskUnits="userSpaceOnUse" x="3" y="-1" width="508" height="491">
<path d="M510.7 297.125L172.649 489.689L3.09106 192.061L341.142 -0.532318L510.7 297.125Z" fill="white"/>
</mask>
<g mask="url(#mask4_1_1624)">
<path d="M343.626 391.84L343.803 315.755L134.887 193.392L339.93 76.1442L340.107 0.0591125L3.3573 192.564L343.626 391.84Z" fill="#53C7ED"/>
</g>
</g>
</g>
</g>
</g>
<mask id="mask5_1_1624" style="mask-type:luminance" maskUnits="userSpaceOnUse" x="0" y="150" width="349" height="394">
<path d="M0.00012207 150.096H348.223V543.74H0.00012207V150.096Z" fill="white"/>
</mask>
<g mask="url(#mask5_1_1624)">
<mask id="mask6_1_1624" style="mask-type:luminance" maskUnits="userSpaceOnUse" x="3" y="77" width="714" height="705">
<path d="M716.836 516.86L253.11 781.014L3.00208 341.98L466.698 77.7962L716.836 516.86Z" fill="white"/>
</mask>
<g mask="url(#mask6_1_1624)">
<mask id="mask7_1_1624" style="mask-type:luminance" maskUnits="userSpaceOnUse" x="3" y="77" width="714" height="705">
<path d="M716.836 516.86L253.11 781.014L3.00208 341.98L466.698 77.7962L716.836 516.86Z" fill="white"/>
</mask>
<g mask="url(#mask7_1_1624)">
<mask id="mask8_1_1624" style="mask-type:luminance" maskUnits="userSpaceOnUse" x="1" y="149" width="510" height="492">
<path d="M510.7 447.221L171.703 640.347L1.87903 342.246L340.876 149.12L510.7 447.221Z" fill="white"/>
</mask>
<g mask="url(#mask8_1_1624)">
<mask id="mask9_1_1624" style="mask-type:luminance" maskUnits="userSpaceOnUse" x="3" y="149" width="508" height="491">
<path d="M510.7 447.221L172.649 639.785L3.09106 342.157L341.142 149.564L510.7 447.221Z" fill="white"/>
</mask>
<g mask="url(#mask9_1_1624)">
<path d="M343.626 541.936L343.803 465.851L134.887 343.488L339.93 226.241L340.107 150.155L3.3573 342.66L343.626 541.936Z" fill="#53C7ED"/>
</g>
</g>
</g>
</g>
</g>
<mask id="mask10_1_1624" style="mask-type:luminance" maskUnits="userSpaceOnUse" x="363" y="150" width="349" height="394">
<path d="M711.447 543.74H363.223L363.223 150.096L711.447 150.096V543.74Z" fill="white"/>
</mask>
<g mask="url(#mask10_1_1624)">
<mask id="mask11_1_1624" style="mask-type:luminance" maskUnits="userSpaceOnUse" x="-6" y="-88" width="715" height="705">
<path d="M-5.38934 176.976L458.337 -87.1782L708.445 351.856L244.748 616.04L-5.38934 176.976Z" fill="white"/>
</mask>
<g mask="url(#mask11_1_1624)">
<mask id="mask12_1_1624" style="mask-type:luminance" maskUnits="userSpaceOnUse" x="-6" y="-88" width="715" height="705">
<path d="M-5.38934 176.976L458.337 -87.1782L708.445 351.856L244.748 616.04L-5.38934 176.976Z" fill="white"/>
</mask>
<g mask="url(#mask12_1_1624)">
<mask id="mask13_1_1624" style="mask-type:luminance" maskUnits="userSpaceOnUse" x="200" y="53" width="510" height="492">
<path d="M200.747 246.615L539.744 53.4891L709.568 351.59L370.57 544.716L200.747 246.615Z" fill="white"/>
</mask>
<g mask="url(#mask13_1_1624)">
<mask id="mask14_1_1624" style="mask-type:luminance" maskUnits="userSpaceOnUse" x="200" y="54" width="509" height="491">
<path d="M200.747 246.615L538.798 54.051L708.356 351.679L370.305 544.272L200.747 246.615Z" fill="white"/>
</mask>
<g mask="url(#mask14_1_1624)">
<path d="M367.821 151.9L367.643 227.985L576.56 350.348L371.517 467.596L371.34 543.681L708.09 351.176L367.821 151.9Z" fill="#8D81FC"/>
</g>
</g>
</g>
</g>
</g>
<mask id="mask15_1_1624" style="mask-type:luminance" maskUnits="userSpaceOnUse" x="363" y="0" width="349" height="394">
<path d="M711.447 393.644L363.223 393.644L363.223 0L711.447 0V393.644Z" fill="white"/>
</mask>
<g mask="url(#mask15_1_1624)">
<mask id="mask16_1_1624" style="mask-type:luminance" maskUnits="userSpaceOnUse" x="-6" y="-238" width="715" height="704">
<path d="M-5.38934 26.8797L458.337 -237.274L708.445 201.76L244.748 465.944L-5.38934 26.8797Z" fill="white"/>
</mask>
<g mask="url(#mask16_1_1624)">
<mask id="mask17_1_1624" style="mask-type:luminance" maskUnits="userSpaceOnUse" x="-6" y="-238" width="715" height="704">
<path d="M-5.38934 26.8797L458.337 -237.274L708.445 201.76L244.748 465.944L-5.38934 26.8797Z" fill="white"/>
</mask>
<g mask="url(#mask17_1_1624)">
<mask id="mask18_1_1624" style="mask-type:luminance" maskUnits="userSpaceOnUse" x="200" y="-97" width="510" height="492">
<path d="M200.747 96.5184L539.744 -96.6071L709.568 201.494L370.57 394.619L200.747 96.5184Z" fill="white"/>
</mask>
<g mask="url(#mask18_1_1624)">
<mask id="mask19_1_1624" style="mask-type:luminance" maskUnits="userSpaceOnUse" x="200" y="-97" width="509" height="492">
<path d="M200.747 96.5184L538.798 -96.0452L708.356 201.583L370.305 394.176L200.747 96.5184Z" fill="white"/>
</mask>
<g mask="url(#mask19_1_1624)">
<path d="M367.821 1.80371L367.643 77.8888L576.56 200.252L371.517 317.499L371.34 393.584L708.09 201.08L367.821 1.80371Z" fill="#8D81FC"/>
</g>
</g>
</g>
</g>
</g>
</svg>
