<svg width="98" height="44" viewBox="0 0 98 44" fill="none" xmlns="http://www.w3.org/2000/svg">
<mask id="path-1-inside-1_2_39" fill="white">
<path d="M43.6608 6.08829C29.0258 4.84829 -9.47715 9.26729 2.92285 27.4023C15.3228 45.5373 64.0579 47.0423 86.0689 38.8303C108.08 30.6183 97.4688 6.39229 60.9918 2.24029C24.5148 -1.91171 20.9979 2.24029 20.9979 2.24029"/>
</mask>
<path d="M43.7453 5.09186C36.3226 4.46295 22.9007 5.263 12.8449 8.52856C7.8441 10.1525 3.47271 12.4491 1.18394 15.6673C0.0184774 17.3061 -0.604959 19.1827 -0.4855 21.2856C-0.367006 23.3715 0.477177 25.5972 2.09737 27.9667L3.74833 26.8379C2.26852 24.6736 1.60342 22.7942 1.51128 21.1722C1.4201 19.5671 1.88467 18.1329 2.81379 16.8265C4.71418 14.1544 8.55822 12.0234 13.4626 10.4308C23.217 7.26309 36.3641 6.47364 43.5764 7.08472L43.7453 5.09186ZM2.09737 27.9667C5.35903 32.7369 10.9423 36.3282 17.691 38.9266C24.4553 41.5311 32.4913 43.1774 40.7941 43.9916C57.3764 45.6178 75.2266 43.9427 86.4184 39.7672L85.7193 37.8934C74.9001 41.9299 57.3773 43.6083 40.9893 42.0012C32.8071 41.1988 24.9586 39.5818 18.4097 37.0602C11.8453 34.5327 6.68667 31.1352 3.74833 26.8379L2.09737 27.9667ZM86.4184 39.7672C92.0845 37.6532 95.8094 34.4486 97.4819 30.6341C99.1645 26.7965 98.6868 22.5301 96.3258 18.5067C91.6377 10.5176 79.4929 3.33972 61.1049 1.24671L60.8788 3.23388C78.9678 5.29287 90.367 12.304 94.6009 19.5189C96.7009 23.0975 97.0288 26.6868 95.6502 29.831C94.2616 32.9982 91.0587 35.9013 85.7193 37.8934L86.4184 39.7672ZM61.1049 1.24671C42.8372 -0.832626 32.76 -0.840743 27.221 -0.312186C24.4505 -0.0478198 22.7822 0.353673 21.7782 0.715694C21.2741 0.897445 20.9268 1.07301 20.6874 1.22379C20.5672 1.29945 20.4731 1.36958 20.3995 1.43199C20.3627 1.46322 20.3309 1.49254 20.3037 1.51965C20.2901 1.53321 20.2776 1.5462 20.2661 1.5586C20.2604 1.5648 20.2549 1.57085 20.2497 1.57675C20.2471 1.57969 20.2446 1.5826 20.2421 1.58547C20.2408 1.5869 20.239 1.58901 20.2384 1.58974C20.2366 1.59185 20.2348 1.59395 20.9979 2.24029C21.7609 2.88664 21.7591 2.88871 21.7574 2.89075C21.7568 2.89141 21.7551 2.89343 21.754 2.89474C21.7517 2.89735 21.7495 2.89988 21.7473 2.90233C21.743 2.90722 21.7389 2.91177 21.735 2.91599C21.7272 2.92443 21.7203 2.93154 21.7144 2.93737C21.7027 2.94902 21.6952 2.95553 21.693 2.95736C21.6888 2.96098 21.7058 2.94596 21.7531 2.9162C21.8485 2.85613 22.0609 2.73976 22.4565 2.59714C23.2518 2.31041 24.7425 1.9334 27.411 1.67877C32.7497 1.16933 42.6695 1.16121 60.8788 3.23388L61.1049 1.24671Z" fill="#CF160C" mask="url(#path-1-inside-1_2_39)"/>
</svg>
